<svg id="Calque_1" data-name="Calque 1" xmlns="http://www.w3.org/2000/svg" viewBox="0 0 712.28 98.55"><defs><style>.cls-1{fill:#031319;}.cls-2{fill:#e00822;}</style></defs><path class="cls-1" d="M473.48,467.69l-9.94-67.05h-.84l-9.8,67.05H426.45l-13.86-96.31h19.46l8.25,75.45h1l10.92-75.45h22.68l11.06,75.45h1l7.84-75.45h19l-14,96.31Z" transform="translate(-217.71 -370.26)"/><path class="cls-1" d="M529.34,464.54q-6.17-4.26-7.7-13.72t-1.54-31.28q0-22,1.54-31.36t7.7-13.65q6.15-4.27,20.72-4.27t20.72,4.27q6.15,4.28,7.7,13.65T580,419.54q0,21.84-1.53,31.28t-7.7,13.72q-6.16,4.27-20.72,4.27T529.34,464.54Zm28.28-14.21q1.95-1.53,2.52-7.56t.56-23.23q0-17.22-.56-23.24t-2.52-7.56q-2-1.55-7.56-1.54t-7.56,1.54q-2,1.54-2.52,7.56t-.56,23.24q0,17.22.56,23.23t2.52,7.56q1.95,1.55,7.56,1.54T557.62,450.33Z" transform="translate(-217.71 -370.26)"/><path class="cls-1" d="M631.81,467.69l-9.38-33.59H612.07v33.59H592.75V371.38h32.48q10.37,0,15.61,3.5A17.09,17.09,0,0,1,647.91,385q1.82,6.59,1.82,17.64A66.77,66.77,0,0,1,647.84,420a16.9,16.9,0,0,1-7.63,10.36l11.62,37.37Zm-4.62-51.3a5.45,5.45,0,0,0,2.59-3.92,51.55,51.55,0,0,0,.63-9.73,49.32,49.32,0,0,0-.63-9.52,5.39,5.39,0,0,0-2.59-3.85q-2-1-6.58-1.05h-8.54v29.12h8.54Q625.23,417.44,627.19,416.39Z" transform="translate(-217.71 -370.26)"/><path class="cls-1" d="M701.66,467.69l-15.12-40.17h-5.31v40.17H661.91V371.38h19.32v38.78h5.31l15.54-38.78H722l-20,46.06,20.44,50.25Z" transform="translate(-217.71 -370.26)"/><path class="cls-1" d="M735.4,464.54q-6.17-4.26-7.7-13.72t-1.54-31.28q0-22,1.54-31.36t7.7-13.65q6.17-4.27,20.72-4.27t20.72,4.27q6.15,4.28,7.7,13.65t1.54,31.36q0,21.84-1.54,31.28t-7.7,13.72q-6.17,4.27-20.72,4.27T735.4,464.54Zm28.28-14.21c1.31-1,2.14-3.54,2.52-7.56s.56-11.75.56-23.23-.19-19.23-.56-23.24-1.21-6.53-2.52-7.56-3.83-1.54-7.56-1.54-6.25.51-7.56,1.54-2.15,3.55-2.52,7.56-.56,11.76-.56,23.24.19,19.22.56,23.23,1.21,6.54,2.52,7.56,3.83,1.54,7.56,1.54S762.37,451.36,763.68,450.33Z" transform="translate(-217.71 -370.26)"/><path class="cls-1" d="M798.82,371.38h26q14.85,0,21.21,4.13t7.91,13.3q1.54,9.17,1.54,30.73T854,450.26q-1.54,9.18-7.91,13.3t-21.21,4.13h-26Zm25.75,79.37q6.16,0,8.33-1.47t2.8-7.35q.63-5.88.63-22.39t-.7-22.33c-.46-4-1.4-6.44-2.8-7.42s-4.15-1.47-8.26-1.47H818v62.43Z" transform="translate(-217.71 -370.26)"/><path class="cls-1" d="M910.39,467.69,906.61,448H885.05l-3.78,19.74H862.09L882,371.38h28.14L930,467.69Zm-14.14-78.11h-.84l-7.56,41.72h15.82Z" transform="translate(-217.71 -370.26)"/><path class="cls-2" d="M245.28,370.26h23.61l-27.56,49.21,16.72,29.26,48.3-78.47h25.57l27.6,49.24L332,468.74H308.32l27.57-49.24c-5.56-9.36-11.52-18.59-17.08-27.95-16,25.81-31.94,51.41-47.94,77.23-8.51-.23-17.08.2-25.59,0l-27.57-49.23Z" transform="translate(-217.71 -370.26)"/></svg>